<svg width="48" height="48" viewBox="0 0 48 48" fill="none" xmlns="http://www.w3.org/2000/svg">
<path d="M31 14H17C9.8203 14 4 19.8203 4 27C4 34.1797 9.8203 40 17 40H31C38.1797 40 44 34.1797 44 27C44 19.8203 38.1797 14 31 14Z" stroke="#D9A215" stroke-width="4"/>
<path d="M24 40C28.4183 40 32 34.1797 32 27C32 19.8203 28.4183 14 24 14C19.5817 14 16 19.8203 16 27C16 34.1797 19.5817 40 24 40Z" stroke="#D9A215" stroke-width="4"/>
<path d="M30 6H27C26.2044 6 25.4413 6.31607 24.8787 6.87868C24.3161 7.44129 24 8.20435 24 9V14" stroke="#D9A215" stroke-width="4" stroke-linecap="round" stroke-linejoin="round"/>
</svg>
