<svg viewBox="0 0 156 42" fill="none" xmlns="http://www.w3.org/2000/svg">
<path d="M12.814 40.4477C12.2215 40.4845 11.629 40.1459 11.1047 39.8125C11.0496 39.7705 10.9133 39.8702 10.9107 39.9385V40.1065C10.9184 40.4061 10.8768 40.705 10.7875 40.9911C10.7114 41.44 10.9369 41.6053 10.486 41.7208C10.2841 41.7497 10.0062 41.7812 9.98524 41.587C9.88824 41.0147 9.39538 40.1511 9.15157 39.6497C8.98195 39.3529 8.84231 39.0399 8.73473 38.7153C8.6456 38.3793 8.40965 38.0459 8.32052 37.7099C8.31648 37.6397 8.29553 37.5715 8.25947 37.5112C8.2234 37.4509 8.17329 37.4002 8.11341 37.3634L8.08719 37.3083C7.93514 36.4526 7.41868 35.7727 7.11457 34.9905C7.07918 34.8918 7.07918 34.7839 7.11458 34.6852C7.14998 34.5866 7.21856 34.5033 7.30857 34.4497L7.64938 34.287C7.95873 34.1374 8.1003 34.0245 8.24973 34.287C8.40965 34.623 8.67968 35.1112 8.86843 35.4341C9.08078 35.8803 9.63395 36.3397 9.88824 36.8017C10.1268 37.3057 10.5961 37.5892 10.9526 38.0459C11.2148 38.395 11.5766 38.4396 11.8466 38.7914C12.3028 38.9909 12.5466 39.2849 13.0683 39.3164C13.4642 39.3335 13.8569 39.2379 14.2008 39.0408C14.5046 38.8564 14.7606 38.6028 14.948 38.3005C15.2704 37.6495 15.509 37.2085 15.4513 36.4919C15.2816 35.762 14.9824 35.0685 14.5678 34.4445C13.8626 33.6453 13.0582 32.9396 12.1743 32.3445C11.5477 31.9429 11.0024 31.4757 10.2998 31.1817C9.95641 30.7591 9.3613 30.6199 8.98903 30.2866C8.61676 29.9532 8.1003 29.7747 8.15535 29.4755C7.80406 29.6356 7.10671 29.213 6.90746 28.9505C7.04903 28.7484 6.19438 28.4255 5.84309 28.184C5.54947 27.9792 5.24012 27.5776 4.79444 27.5803C4.89668 27.4621 3.7825 26.7928 3.25031 26.3623C2.99511 26.1689 2.76445 25.945 2.56344 25.6955C2.12301 25.2887 1.8189 24.7479 1.31031 24.3831C1.03984 23.9424 0.80153 23.4827 0.597231 23.0076C0.352037 22.4037 0.208524 21.7633 0.172528 21.1124C-0.144687 20.3722 0.0493124 20.3459 0.172528 19.5374C0.172528 19.2933 0.434691 19.1043 0.484502 18.8733C0.636555 18.0465 1.07437 17.4585 1.74812 16.7366C2.14056 16.3349 2.60243 16.0076 3.11136 15.7706C3.86094 15.4215 4.6782 15.2423 5.5049 15.2457C5.8642 15.2285 6.21826 15.3371 6.50636 15.5528C6.67152 15.6499 6.7423 15.621 6.80784 15.39C6.87076 15.0593 7.05427 14.7102 7.03854 14.382C7.01495 14.3243 7.03854 14.2823 7.03854 14.2088C7.06578 14.1118 7.11746 14.0234 7.18862 13.9522C7.25977 13.881 7.34802 13.8292 7.4449 13.8019C7.70706 13.7547 7.95087 13.8256 8.03214 14.0251C8.09312 14.122 8.13743 14.2284 8.16322 14.34C8.20516 15.0278 8.49092 15.6131 8.7426 16.2143C8.92895 16.6101 9.06375 17.0283 9.1437 17.4585C9.24148 17.9202 9.41229 18.3632 9.64968 18.7709C9.82148 19.2403 9.95733 19.722 10.056 20.212C10.06 20.2603 10.0484 20.3085 10.0229 20.3496C9.9974 20.3907 9.95939 20.4226 9.91446 20.4404C9.66667 20.5737 9.41202 20.6937 9.15157 20.8C9.01787 20.8578 8.90251 20.8735 8.84222 20.7318C8.68754 20.4693 8.17108 19.6372 8.03476 19.3248C7.87033 18.971 7.62518 18.6608 7.31906 18.4192C7.25406 18.3501 7.20485 18.2677 7.17487 18.1777C6.91271 17.28 6.34906 17.1277 5.6019 16.6342C4.9832 16.1618 4.19933 16.272 3.42858 16.6894L3.32371 16.7366C2.99077 17.1934 2.45071 17.4769 2.2305 17.9913C1.97342 18.5115 1.86975 19.0943 1.93163 19.6713C2.00766 20.1963 2.15709 20.1464 2.30128 20.4588C2.67617 21.3434 2.56344 21.1203 3.14282 21.6374C3.49876 21.9881 3.90636 22.282 4.35139 22.5089C4.93339 22.8869 5.16409 22.9525 5.76182 23.2964L6.25206 23.5825C6.46179 23.6901 6.3412 23.95 6.62957 23.887C6.91795 23.824 7.34527 24.412 7.69657 24.4933C7.92465 24.5616 8.10292 24.7847 8.32314 24.9264C8.80912 25.2744 9.31509 25.5934 9.83843 25.8819C10.4523 26.1833 11.0287 26.556 11.5556 26.9923C11.7942 27.1918 11.9619 27.491 12.3421 27.5671C13.1128 28.2155 13.5008 28.4202 14.109 29.2418C14.3843 29.6303 14.5757 30.0871 14.9322 30.4073C15.0387 30.5106 15.118 30.6386 15.1629 30.7801C15.2704 31.0426 15.6873 31.5308 15.8341 31.7749C16.2245 32.5844 16.5694 33.4152 16.867 34.2634C16.943 34.5259 17.2314 36.1008 17.179 36.3843C17.1108 36.9854 16.8749 37.3529 16.7516 37.9803L16.6442 38.2297C16.3348 38.8334 15.4644 39.5185 14.7487 39.907C14.6247 39.9966 14.4838 40.06 14.3345 40.0934C13.8382 40.2529 13.3296 40.3715 12.814 40.4477Z" fill="#FAF4E5"/>
<path d="M21.1324 36.2137C21.0956 36.0299 21.1324 35.9171 21.2739 35.8593C21.6881 35.6651 22.1128 35.4997 22.5271 35.3107C22.7892 35.2057 22.8521 35.1558 22.763 34.9222C22.3593 33.9484 22.1128 32.9141 21.5754 31.9587C21.5754 31.9298 21.5125 31.8825 21.5204 31.8143C21.5189 31.5611 21.4501 31.3128 21.3211 31.095L19.7272 26.861C19.6715 26.6408 19.5831 26.4302 19.465 26.2363C19.3672 26.1528 19.2877 26.05 19.2313 25.9344C19.1749 25.8188 19.1429 25.6928 19.1373 25.5643C19.1583 25.3254 18.9197 25.1837 18.9302 24.9133C18.9387 24.5379 18.8015 24.1738 18.5474 23.8975C18.5109 23.819 18.4592 23.7485 18.3954 23.6901C18.2093 23.4958 18.3954 23.1651 18.1988 22.9682C18.0329 22.764 17.9267 22.5178 17.892 22.2569C17.8359 22.0577 17.7632 21.8636 17.6744 21.6768C17.3819 21.2386 17.2159 20.7281 17.1947 20.2015C17.1947 20.0309 17.0505 19.9233 16.9535 19.7632C16.7647 19.4692 16.8827 19.0623 16.5812 18.7788C16.2797 18.4953 16.2509 18.0465 16.1198 17.6658C15.9547 17.3299 15.8236 16.9834 15.6925 16.6342C15.1682 15.3716 14.7277 14.0828 14.248 12.8097C14.172 12.6076 14.033 12.5472 13.7499 12.668L13.1862 12.8832V12.9121L12.7642 13.0748C12.2398 13.3084 12.2398 13.3084 11.9147 12.8727C11.8811 12.8203 11.8597 12.761 11.852 12.6992C11.8444 12.6374 11.8508 12.5747 11.8707 12.5157C11.8906 12.4567 11.9235 12.4029 11.967 12.3584C12.0104 12.3139 12.0634 12.2797 12.1219 12.2585C12.2398 12.1828 12.3666 12.122 12.4994 12.0773C13.0237 11.8437 13.5847 11.6259 14.1536 11.4132C14.3935 11.3584 14.615 11.2417 14.7959 11.0746C15.2442 10.9749 15.5824 10.6861 16.0517 10.6468C16.4585 10.5545 16.8581 10.4325 17.2471 10.2819C18.7703 9.8304 21.7039 8.91954 22.8941 9.7149C23.8128 10.0192 24.5982 10.6322 25.1172 11.45C25.3794 11.9199 26.1659 12.815 26.4044 13.2586C26.5381 13.4449 26.3651 13.7573 26.5958 13.8807C26.8422 14.0644 26.6876 14.3059 26.761 14.5422L27.0598 15.5186C27.1883 16.062 27.322 16.3481 27.2276 16.9256C27.2301 17.1072 27.2712 17.2862 27.3482 17.4506C27.5081 17.8548 27.322 18.3352 27.3089 18.7631C27.3089 19.1201 26.8134 20.2488 26.9602 20.6005C26.9755 20.6571 26.968 20.7175 26.9392 20.7685C26.6621 21.1637 26.4158 21.5797 26.2026 22.0127C26.0793 22.312 25.3951 22.8974 25.1801 23.131C24.7187 23.6113 23.6255 24.0497 23.1431 24.3516C23.0935 24.389 23.0567 24.4409 23.0379 24.5002C23.0191 24.5594 23.0193 24.6231 23.0383 24.6823L23.1615 25.0341C23.6858 26.525 24.2101 28.016 24.758 29.4965L25.7385 32.3051C25.8618 32.6569 26.1685 32.943 26.179 33.3551C26.158 33.3945 26.2393 33.4312 26.2602 33.4916C26.3939 33.6754 26.546 33.72 26.7112 33.5966C27.1745 33.354 27.6723 33.184 28.1871 33.0926C28.5332 33.1084 28.4991 33.5126 28.6695 33.7147C28.6918 33.7421 28.7084 33.7736 28.7183 33.8075C28.7281 33.8413 28.7311 33.8769 28.7269 33.9119C28.7227 33.9469 28.7116 33.9808 28.694 34.0114C28.6765 34.042 28.653 34.0688 28.6249 34.0901C28.1661 34.2763 27.6969 34.4358 27.2197 34.5678C26.8885 34.612 26.5814 34.7653 26.3467 35.0036C26.2792 35.062 26.1922 35.0929 26.1029 35.0902C24.9861 35.3238 24.8341 35.3816 24.0266 35.8094C23.9221 35.87 23.8039 35.9025 23.6832 35.9039C23.3237 35.9499 22.9827 36.0903 22.6948 36.3108C22.4948 36.4417 22.279 36.5467 22.0525 36.6232C21.481 36.841 21.3631 36.7912 21.1324 36.2137ZM23.1982 22.7057C23.3607 22.7477 23.3791 22.48 23.4341 22.4275C23.7146 22.165 23.8746 21.9839 23.8746 21.6558C23.8746 21.3276 24.1367 21.01 24.121 20.6242C24.1306 19.7488 23.9959 18.8779 23.7225 18.0465C23.7645 17.3797 23.5285 16.7734 23.3345 16.1854C23.2087 15.8021 23.0121 15.4425 23.0724 15.033C23.0777 14.9903 23.0734 14.9469 23.0598 14.906C23.0462 14.8651 23.0236 14.8278 22.9937 14.7968C22.8482 14.6409 22.7453 14.4502 22.6948 14.2429C22.6174 13.7911 22.4853 13.3504 22.3016 12.9305C22.0132 12.7651 21.6777 12.2243 21.4837 11.9933C21.1444 11.5762 20.7552 11.2024 20.3249 10.8804C19.7324 10.526 18.8201 10.5418 18.0703 10.904C17.9392 10.9827 17.8737 11.1376 17.9759 11.2006C18.3482 11.4631 18.2381 11.9303 18.4714 12.2742C18.6324 12.5072 18.7284 12.7791 18.7493 13.0617C18.7126 13.4029 19.1294 13.5867 18.9774 13.9332C19.1976 14.1169 19.1085 14.4135 19.1897 14.6472C19.4807 14.8073 19.4781 15.1354 19.5699 15.4005C19.7691 15.8573 19.8897 16.3061 20.0942 16.7629C20.2352 17.2387 20.4105 17.7036 20.6185 18.1541C20.8807 18.5557 20.9252 19.0308 21.1428 19.4167C21.4365 20.0362 21.6383 20.7292 21.9293 21.3408L22.3802 22.627C22.4405 22.8029 22.4484 23.0312 22.6109 23.0706C22.7301 23.0586 22.845 23.0194 22.9467 22.9562C23.0485 22.893 23.1345 22.8073 23.1982 22.7057Z" fill="#FAF4E5"/>
<path d="M36.0835 31.8274L35.4962 31.9928C35.0401 32.1556 35.0427 32.1556 34.749 31.7303C34.7031 31.6815 34.6708 31.6214 34.6553 31.5561C34.6398 31.4908 34.6417 31.4226 34.6609 31.3583C34.68 31.294 34.7156 31.2358 34.7642 31.1896C34.8128 31.1434 34.8727 31.1108 34.9378 31.0951L36.0599 30.7801C36.2696 30.6908 36.322 30.6121 36.2512 30.3732C36.1572 29.9486 36.031 29.5318 35.8737 29.1264C35.761 28.8376 35.8737 28.5148 35.6981 28.2418C35.5796 27.977 35.4916 27.6996 35.4359 27.4149L35.1737 26.4883C35.1239 26.1812 34.9771 25.9003 35.0558 25.5564C35.0596 25.4973 35.0506 25.4381 35.0293 25.3828C35.008 25.3275 34.975 25.2775 34.9326 25.2362C34.7645 25.0031 34.6548 24.7331 34.6127 24.4487C34.4816 23.7137 34.112 23.0129 34.112 22.2411C33.724 21.6085 33.627 20.8657 33.3963 20.1569L31.8495 14.5422C31.5218 13.3478 30.8953 11.6232 30.7825 10.5286C30.5204 10.2661 30.2241 8.9143 29.941 7.60971C29.8912 7.43121 29.8021 7.38921 29.5871 7.44958C29.1545 7.57033 28.7587 7.68058 28.3549 7.76458C28.2107 7.80658 28.0928 7.76458 28.0429 7.62808C27.9806 7.5309 27.9362 7.42333 27.9119 7.31046C27.8358 7.04797 27.9355 6.8511 28.2632 6.75922C28.8425 6.59385 29.4822 6.51248 30.0039 6.27361C30.5964 6.01112 30.0773 6.25261 30.7301 6.07674C31.0945 5.97962 31.4694 5.78275 31.8286 5.81425C32.1877 5.84574 32.484 5.64362 32.8248 5.62C33.3077 5.57484 33.7775 5.43763 34.209 5.21576C34.528 5.10024 34.8615 5.02957 35.2 5.00576C35.8501 4.97689 35.9498 5.08189 35.9262 5.62787C35.9223 5.69361 35.8956 5.75591 35.8505 5.80389C35.8055 5.85187 35.745 5.88248 35.6797 5.89037L34.2641 6.23424C34.1277 6.29986 34.0255 6.35761 34.0622 6.49673C34.2273 7.15822 34.3243 7.9667 34.6599 8.58356C34.6101 9.14005 35.1973 9.53379 35.006 10.1244C35.2681 10.3869 35.2681 10.7596 35.3599 11.0904C35.4437 11.3025 35.5104 11.5211 35.5591 11.744C35.5613 11.9745 35.5815 12.2044 35.6194 12.4317C35.6877 12.6197 35.7701 12.8022 35.8659 12.9777C35.8853 13.1458 35.8905 13.3153 35.8816 13.4843C35.8423 13.6208 36.0179 13.7468 36.0127 13.8676C36.0019 13.974 36.0288 14.0808 36.0887 14.1694C36.2266 14.4288 36.2986 14.7182 36.2984 15.012C36.2984 15.3008 36.4662 15.537 36.4243 15.7995C36.4271 16.0077 36.4661 16.2138 36.5396 16.4085C36.8018 17.6501 37.1557 18.8733 37.4283 20.1149C37.5122 20.4457 37.7272 20.7423 37.5358 21.1098C38.0182 21.9156 38.0602 22.8291 38.3223 23.6612L38.5242 24.0576C38.6006 24.206 38.6621 24.3616 38.7077 24.5222C38.7257 24.7808 38.7777 25.0359 38.8624 25.2808C38.9725 25.4462 38.8388 25.7349 39.0197 25.9134C38.92 26.1943 39.2032 26.378 39.232 26.6274C39.2255 26.6697 39.2274 26.7128 39.2378 26.7543C39.2481 26.7957 39.2667 26.8347 39.2923 26.8689C39.4155 27.0947 39.1743 27.3467 39.3867 27.5173C39.599 27.6879 39.5309 27.9609 39.6148 28.163C39.7459 28.4255 39.5597 28.751 39.7773 28.9505C39.7196 29.1237 39.814 29.2287 39.8743 29.3416C40.0578 29.6802 40.0264 29.6855 40.3567 29.5411C40.4887 29.4617 40.6284 29.3958 40.7735 29.3442C41.6858 29.1237 41.5338 29.1946 41.7199 29.9768C41.7697 30.1868 41.602 30.4493 41.4001 30.4362C41.0278 30.3995 40.7526 30.6252 40.4117 30.6987C39.7826 30.8221 39.1979 31.0032 38.5766 31.1371C38.1414 31.2499 37.7901 31.5072 37.3209 31.5361C36.8516 31.5649 36.495 31.7434 36.0835 31.8274Z" fill="#FAF4E5"/>
<path d="M44.9969 29.8115C44.8606 29.7773 44.6955 29.7826 44.6011 29.6435C44.4979 29.4706 44.4537 29.2688 44.4752 29.0686C44.4819 29.0419 44.4949 29.0172 44.5132 28.9967C44.5314 28.9761 44.5544 28.9602 44.5801 28.9505C44.9498 28.8376 45.3299 28.7562 45.7074 28.688C46.022 28.6224 46.0718 28.5489 46.0167 28.2759C45.7546 27.0631 45.5475 25.8425 45.2591 24.601C45.107 23.8738 44.9262 23.152 44.7741 22.4222C44.7615 22.1883 44.6793 21.9634 44.5382 21.7765C44.4888 21.7176 44.4573 21.6457 44.4476 21.5694C44.4378 21.493 44.4501 21.4155 44.4831 21.346C44.5513 21.1728 44.3809 21.0205 44.3835 20.8604C44.4023 20.7759 44.3999 20.6881 44.3766 20.6047C44.3532 20.5214 44.3097 20.4451 44.2498 20.3827C44.2105 20.359 44.1974 20.2987 44.1842 20.2383C44.2002 20.0399 44.1825 19.8402 44.1318 19.6477C44.0382 19.4724 43.9753 19.2824 43.9457 19.0859C43.8872 18.8876 43.8451 18.6848 43.8198 18.4796C43.7753 18.267 43.867 18.0281 43.7543 17.8286C43.6835 17.6527 43.5315 17.4322 43.5996 17.259C43.6835 16.9965 43.3689 16.8311 43.5026 16.6159C43.2527 15.5816 43.0019 14.5474 42.7502 13.5132C42.7076 13.4014 42.6493 13.2962 42.5772 13.2008C42.5106 13.1234 42.4622 13.0321 42.4354 12.9336C42.4087 12.835 42.4043 12.7317 42.4225 12.6312C42.508 12.234 42.4475 11.8193 42.2521 11.4631C42.1368 11.2662 42.3098 11.0405 42.1315 10.8856C41.9113 10.7098 42.0555 10.5208 42.0476 10.3029C42.0544 10.234 42.0474 10.1644 42.0271 10.0982C42.0069 10.0319 41.9738 9.97037 41.9297 9.91702C41.6836 9.45119 41.5737 8.92535 41.6124 8.39981C41.5971 8.0264 41.5453 7.65539 41.4578 7.29208L40.9649 4.92963C40.9387 4.80889 40.8469 4.73276 40.666 4.76951L39.6174 4.99526C39.1088 5.1055 38.6789 4.73276 38.8912 4.29702C38.9715 4.19258 39.0701 4.10363 39.1822 4.03453C39.3955 3.96157 39.6136 3.90367 39.835 3.86128C40.0473 3.83786 40.2549 3.78301 40.4511 3.69853C40.9754 3.33367 41.6387 3.51479 42.2207 3.36779C42.7693 3.19462 43.3356 3.08367 43.909 3.03705C44.0243 3.03705 44.1108 3.0948 44.1266 3.18405C44.4202 4.1369 45.0232 4.94013 45.3404 5.85624C45.4231 6.01833 45.5262 6.16917 45.6471 6.3051C45.9336 6.63872 46.1454 7.02984 46.2684 7.4522C46.3158 7.77886 46.4559 8.08501 46.6722 8.33418C46.992 8.68593 46.895 9.17679 47.2437 9.49178C47.4875 10.4551 48.1009 11.261 48.4024 12.1823C48.5414 12.5682 49.084 13.4476 49.2544 13.8282C49.8391 14.9858 50.2454 15.7365 50.7855 16.902C50.8877 17.1041 50.8562 17.3299 50.9532 17.5031C51.0701 17.6984 51.1726 17.9019 51.26 18.1121C51.3911 18.2801 51.2862 18.4848 51.4487 18.6371C51.5907 18.7826 51.6903 18.9641 51.7371 19.1621C51.9128 19.8236 52.2614 20.4614 52.4843 21.0835C52.6166 21.5089 52.7823 21.9232 52.9798 22.3225C53.0112 22.3225 53.0505 22.3435 53.0689 22.2464C53.0505 21.9051 52.9037 21.1754 52.8932 21.1124C52.8408 20.3249 52.6311 19.4272 52.521 18.6922C52.521 18.6922 52.4974 18.54 52.521 18.5347C52.4266 17.9231 52.2038 17.3614 52.1068 16.7497C52.0596 16.4426 52.1068 16.0909 51.8918 15.81C51.853 15.7653 51.825 15.7121 51.8099 15.6548C51.7949 15.5974 51.7933 15.5374 51.8053 15.4793C51.857 14.6744 51.7317 13.8679 51.4382 13.1168C51.416 13.0307 51.416 12.9404 51.4382 12.8543C51.6349 12.29 51.3465 11.8044 51.2652 11.2794L50.948 9.22666C50.8956 8.89067 50.8091 8.55993 50.9742 8.21869C50.7942 7.91892 50.6798 7.5843 50.6387 7.23696C50.6055 6.68882 50.5177 6.14537 50.3765 5.61474C50.3248 5.27556 50.2369 4.94291 50.1143 4.62252C50.0304 4.32327 49.8312 4.00828 49.999 3.63816C50.0593 3.53579 49.9282 3.42817 49.8731 3.31267C49.8326 3.24371 49.7719 3.18887 49.6992 3.15554C49.6266 3.12222 49.5454 3.11201 49.4668 3.1263C49.1732 3.17355 49.0421 3.28904 48.7747 3.26804C48.6918 3.30242 48.6011 3.3135 48.5124 3.30009C48.4237 3.28667 48.3404 3.24928 48.2713 3.19192C48.2021 3.13553 48.1459 3.06481 48.1065 2.98461C48.0671 2.90442 48.0456 2.81664 48.0433 2.72731C48.0013 2.48319 48.0433 2.34932 48.3474 2.26794C48.7904 2.19444 49.105 2.26794 49.4983 2.11569C50.2507 1.8532 51.0476 1.8532 51.8236 1.73508C52.0329 1.67068 52.2567 1.67068 52.4659 1.73508C52.812 1.7797 52.8985 1.8637 52.8959 2.11307C52.9023 2.17751 52.8957 2.24259 52.8762 2.30437C52.8568 2.36614 52.8251 2.42332 52.7829 2.47242C52.7407 2.52152 52.689 2.56153 52.6309 2.59C52.5728 2.61848 52.5095 2.63483 52.4449 2.63806L52.2247 2.66956C51.121 2.82705 51.218 2.72206 51.3439 3.58041C51.433 4.18498 51.5582 4.78366 51.7188 5.37325C51.7371 5.49662 51.7188 5.59374 51.7188 5.68562C51.7005 5.89375 51.7191 6.10347 51.7738 6.3051C51.9109 6.61291 51.9608 6.95254 51.918 7.28683C51.9311 7.45546 51.9803 7.61929 52.0622 7.7672C52.1959 7.93519 52.0753 8.10844 52.133 8.25806C52.2088 8.40978 52.2336 8.58194 52.2038 8.74892C52.1661 8.89261 52.1661 9.0436 52.2038 9.18729C52.2913 9.53911 52.344 9.89871 52.3611 10.2609C52.373 10.6641 52.4204 11.0656 52.5026 11.4605C52.5577 11.828 52.673 12.1246 52.7255 12.4921C52.7779 12.8596 52.7779 13.3294 52.8329 13.6969L52.9955 14.7994C53.0532 15.1984 53.1475 15.5869 53.2052 15.9911L53.373 17.1251C53.4121 17.3641 53.5164 17.5876 53.6745 17.7708C53.6194 18.0911 53.9366 18.3903 53.7505 18.7605C53.7007 18.8917 53.8003 19.0964 53.8213 19.2513L54.3954 23.0339C54.4458 23.3408 54.5123 23.6448 54.5947 23.9447C54.8988 25.1207 54.7258 25.9607 55.0508 27.5094C55.0545 27.5664 55.0374 27.6228 55.0027 27.6682C54.968 27.7136 54.918 27.7448 54.8621 27.7561C54.516 27.9059 54.1432 27.9836 53.7662 27.9845C53.4215 27.9439 53.0723 27.9993 52.7569 28.1446C52.1959 28.268 52.1487 28.1814 51.9495 27.9635C51.7754 27.8017 51.6501 27.5944 51.5877 27.365C51.551 27.1524 51.2128 26.8951 51.1184 26.7219C51.0083 26.4594 50.9716 26.2442 50.8562 26.0105C50.72 25.7781 50.6008 25.5359 50.4997 25.2861C50.4525 25.0236 50.2061 24.7401 50.0934 24.4776C49.8731 23.9815 49.6188 23.4906 49.3645 23.0024C49.3645 22.9709 49.2833 22.9236 49.2728 22.8606C49.1601 22.0311 48.662 21.3329 48.2844 20.5848C48.135 20.3223 48.0852 20.0598 47.9332 19.7973C47.7811 19.5348 47.5714 19.3274 47.671 18.9941C47.4994 18.7943 47.3442 18.581 47.207 18.3562C47.1015 18.2532 47.0193 18.1288 46.9658 17.9913C46.8347 17.2905 46.4047 16.6789 46.1347 16.0043C45.904 15.3533 45.6104 14.7469 45.3797 14.0986C45.1595 13.5106 44.2708 11.9146 44.0086 11.3371C43.7464 10.5496 43.6206 10.1191 43.4266 10.253C43.3925 10.253 43.8592 12.4107 43.8644 12.4396C43.9483 12.6758 43.8644 12.9646 44.0925 13.2271C44.2498 13.8282 44.3756 14.466 44.5303 15.0645C44.8082 17.1645 45.3797 18.2748 45.6969 20.9287C45.709 21.2459 45.8059 21.5541 45.9774 21.8211C46.119 22.0154 46.3051 23.6586 46.3497 23.8633C46.5856 25.0472 46.9527 26.2258 47.0628 27.449C47.1126 27.533 47.3249 28.3126 47.4219 28.2627C47.5932 28.2445 47.7625 28.2111 47.9279 28.163C48.7563 27.8769 48.9189 28.037 49.0552 28.4255C49.084 28.5777 49.0971 28.8271 48.9398 28.856C48.5259 29.0023 48.0981 29.1061 47.6631 29.1657C47.2406 29.2284 46.8234 29.3232 46.4152 29.4492C46.1403 29.4923 45.8745 29.5811 45.6288 29.7117C45.5397 29.779 45.4355 29.8233 45.3253 29.8407C45.2151 29.8581 45.1023 29.8481 44.9969 29.8115Z" fill="#FAF4E5"/>
<path d="M59.2454 27.3676C58.9544 27.3388 58.4983 27.302 58.2335 27.491C57.9687 27.68 57.6777 27.407 57.6332 27.0684L57.6122 26.9135C57.5924 26.849 57.5929 26.7799 57.6135 26.7156C57.6342 26.6513 57.6739 26.5949 57.7275 26.5539C57.8558 26.4161 58.0284 26.3278 58.2152 26.3045C58.6346 26.2835 58.6818 26.1523 58.6765 25.8425C58.6897 25.1548 58.6766 24.3122 58.7709 23.6455C58.847 23.1677 58.7237 22.6847 58.8653 22.1991C58.7421 21.7135 58.8653 21.2331 58.8941 20.7292C58.944 20.2855 58.8941 19.8262 58.9728 19.3799C59.0646 18.9967 58.9728 18.5924 59.0069 18.1908C59.0672 17.5293 58.9912 16.8521 59.02 16.1933C59.02 15.3821 59.0777 14.5343 59.1275 13.7179C59.2067 13.1265 59.2356 12.5293 59.214 11.933C59.1432 11.597 59.2874 11.3004 59.2533 10.9932C59.1814 10.7028 59.1979 10.3975 59.3005 10.1165C59.2087 9.59152 59.4027 9.04553 59.3424 8.49167C59.29 7.99818 59.4604 7.54407 59.3739 7.05583C59.5758 6.56759 59.4185 6.0846 59.5155 5.60948C59.5827 5.33108 59.6153 5.04541 59.6125 4.759C59.7048 4.30396 59.7444 3.83978 59.7304 3.37566C59.7101 3.14473 59.7243 2.91206 59.7724 2.6853C59.8641 2.11569 59.8851 1.55395 59.9795 0.984335C60.0241 0.669342 60.0896 0.569593 60.3858 0.540719C60.8656 0.464596 61.3139 0.422596 61.7963 0.380597C62.1345 0.380597 62.3206 0.335973 62.3835 0.671966L62.6116 1.18121C62.5513 1.80857 62.8738 2.15506 63.0363 2.73255C63.2513 3.55415 63.461 4.34689 63.7048 5.13437C63.7573 5.34699 63.8464 5.55698 63.8988 5.77223C63.9244 5.97418 63.9885 6.16933 64.0876 6.34709C64.0876 6.37859 64.1295 6.40484 64.1295 6.43634C64.1643 6.97235 64.2892 7.49863 64.4992 7.99293C64.7017 8.49656 64.8707 9.01305 65.0051 9.53902C65.1152 10.0903 65.3643 10.589 65.3669 11.1297C65.3512 11.4106 65.5059 11.618 65.595 11.891C65.7366 12.416 65.983 12.9409 66.0223 13.5394C66.0379 13.6751 66.0705 13.8083 66.1193 13.9358C66.3448 14.697 66.5991 15.4556 66.7538 16.2536C66.7389 16.3896 66.7597 16.5271 66.8141 16.6526C67.168 17.406 67.1549 18.2775 67.4695 19.0334C67.5245 19.8997 68.0855 21.5114 68.02 21.5455C67.8601 21.6479 68.2061 21.8763 68.6361 24.3332C68.6982 24.6233 68.7788 24.9091 68.8773 25.1889C68.8845 25.2232 68.9005 25.2549 68.9239 25.2809C68.9472 25.307 68.9769 25.3264 69.0101 25.3373C69.0433 25.3482 69.0788 25.3502 69.113 25.3431C69.1472 25.3359 69.1789 25.3199 69.205 25.2966C69.2968 25.2646 69.3936 25.2495 69.4907 25.2519C70.0334 25.1627 70.0675 25.2231 70.0989 25.874C70.1095 25.9848 70.0786 26.0955 70.0122 26.1848C69.9459 26.274 69.8488 26.3354 69.7398 26.357C69.1583 26.494 68.5622 26.5584 67.9649 26.5487L67.5848 26.5723V26.6038L66.8219 26.6536C66.4706 26.6536 66.1324 26.8269 65.8336 26.6536C65.4846 26.7561 65.1246 26.816 64.7613 26.8321C64.7077 26.8391 64.6532 26.8349 64.6012 26.8199C64.5492 26.8049 64.5008 26.7794 64.459 26.745C64.4173 26.7106 64.383 26.6679 64.3583 26.6197C64.3337 26.5715 64.3191 26.5187 64.3157 26.4647C64.2761 26.3243 64.2532 26.1798 64.2475 26.0342C64.2327 25.9976 64.233 25.9567 64.2482 25.9203C64.2634 25.8839 64.2924 25.855 64.3288 25.8399C64.6608 25.7499 65.0004 25.691 65.3433 25.664C65.5347 25.6483 65.6212 25.517 65.574 25.3044C65.5566 25.1483 65.5232 24.9944 65.4744 24.8451C65.5111 24.4697 65.3328 24.2649 65.2778 23.9893C65.2234 23.8622 65.1804 23.7304 65.1493 23.5956C65.1263 23.1664 65.0379 22.7433 64.8872 22.3409L64.7482 21.8159C64.7482 21.4116 64.3707 20.821 64.4651 20.7502C64.5595 20.6793 64.2737 20.0204 64.1793 19.6844C64.1759 19.6562 64.1664 19.6291 64.1514 19.6049C64.1365 19.5807 64.1165 19.56 64.0928 19.5443C64.0692 19.5286 64.0424 19.5182 64.0143 19.5138C63.9863 19.5095 63.9576 19.5113 63.9303 19.5191C63.5501 19.3957 63.2356 19.6109 62.9603 19.5401C62.5618 19.5768 62.1738 19.6451 61.7674 19.6818C61.4345 19.7133 61.112 19.8393 60.7607 19.6818C60.6034 19.792 60.3885 19.6582 60.2364 19.8314C60.142 19.9049 60.0791 19.9417 60.0608 20.0677C60.011 20.8551 59.9297 21.6085 59.948 22.3855C59.944 23.0175 59.8932 23.6483 59.796 24.2728C59.8023 24.3787 59.7926 24.4849 59.7671 24.5878C59.7488 24.9947 59.7671 25.5538 59.7671 25.9607C59.7803 26.084 59.851 26.1392 59.9821 26.1549C60.2166 26.1338 60.4495 26.0978 60.6795 26.0473C60.7712 26.0069 60.8703 25.9861 60.9705 25.9861C61.0706 25.9861 61.1697 26.0069 61.2615 26.0473C61.3623 26.1726 61.4224 26.3258 61.4336 26.4863C61.4449 26.6468 61.4067 26.8069 61.3244 26.945C61.2028 27.0434 61.073 27.1313 60.9364 27.2075C60.6742 27.05 60.2679 27.2495 60.0214 27.3414C59.8012 27.176 59.4735 27.4018 59.2454 27.3676ZM60.7817 18.6239L61.9877 18.5032C62.5051 18.5168 63.0224 18.4701 63.5292 18.3641C63.6943 18.3195 63.7913 18.2171 63.7415 18.0675C63.6355 17.8017 63.5479 17.5289 63.4794 17.2511C63.2696 16.7707 63.2906 16.2405 63.0494 15.8258C62.7322 15.3244 62.7112 14.7364 62.5565 14.1589C62.4947 14.0346 62.448 13.9033 62.4176 13.7678C62.2999 13.212 62.1449 12.6648 61.9536 12.1298C61.7491 11.4342 61.6495 10.7255 61.3742 10.0666C61.3899 9.4734 61.057 8.97729 61.0019 8.3893C60.9449 8.0473 60.8527 7.71214 60.7267 7.3892C60.7267 7.3577 60.6873 7.36295 60.6847 7.33145L60.6192 7.3997C60.5947 7.88968 60.5702 8.37967 60.5458 8.86966C60.5195 9.71227 60.357 10.5706 60.4461 11.4342V11.4946C60.3255 12.4107 60.3491 13.3111 60.2679 14.2219C60.2227 14.5034 60.1947 14.7875 60.184 15.0724C60.2179 15.4146 60.2179 15.7592 60.184 16.1014C60.0844 16.4557 60.184 16.8495 60.1316 17.2275C60.0791 17.7 60.1656 18.1908 60.0817 18.6659C60.0817 18.7263 60.2023 18.8392 60.2653 18.8024C60.4186 18.6983 60.5968 18.6367 60.7817 18.6239Z" fill="#FAF4E5"/>
<path d="M80.1266 26.1654C79.7439 26.1654 79.3611 26.1838 78.9784 26.1812C78.8525 26.1497 78.7162 26.1155 78.7162 25.9607V25.6824C78.7162 24.9711 78.7162 25.2178 79.2405 25.1312C79.563 25.0734 79.8487 25.1706 80.1712 25.1443C80.2154 25.1367 80.2557 25.1145 80.2856 25.0811C80.3156 25.0478 80.3335 25.0053 80.3364 24.9606C80.3652 23.4118 80.4963 21.8343 80.3914 20.3433L80.4229 18.7001C80.4596 16.7182 80.533 14.7049 80.5723 12.7205C80.5723 12.5341 80.6824 12.3818 80.685 12.227C80.6705 12.0579 80.6389 11.8908 80.5907 11.7282C80.6212 11.5284 80.6722 11.3323 80.7427 11.1429C80.7427 10.988 80.5749 10.7675 80.6483 10.6441C80.9105 9.99839 80.4255 9.33165 80.7558 8.72529C80.5566 7.97718 80.7139 7.17395 80.6955 6.39959L80.7847 1.72195C80.7933 1.54651 80.7845 1.37065 80.7584 1.19696C80.7584 1.10508 80.6877 1.07096 80.5749 1.03946L79.4267 1.02109C79.2405 0.986963 79.1304 0.895089 79.133 0.708718C79.0961 0.577404 79.0961 0.438417 79.133 0.307103C79.133 0.21523 79.2091 0.0288591 79.3218 -1.52588e-05C79.584 -1.52588e-05 79.9195 0.0393598 80.1424 0.0419848C80.3652 0.0446097 80.6247 0.141731 80.8869 0.0551083C81.0595 0.0205797 81.2352 0.00386697 81.4112 0.00523374C82.1191 0.0209834 82.8662 0.00523447 83.5741 0.0367338C85.2152 0.0892326 87.7398 0.372726 89.3416 0.362226C89.5536 0.381559 89.764 0.416655 89.9708 0.467224C90.191 0.545972 90.2539 0.674595 90.2697 0.992213C90.3136 1.85049 90.3004 2.71075 90.2303 3.56728C90.2045 3.67817 90.1965 3.79249 90.2067 3.9059C90.4243 4.43089 90.2775 4.9375 90.2749 5.46511C90.3037 6.05835 89.9787 6.0321 89.4412 5.93235C89.3704 5.89561 89.2656 5.85886 89.2682 5.82736C89.1424 5.53861 88.7937 5.32862 88.854 4.96113C88.8747 4.75634 88.8374 4.54986 88.7465 4.36526C88.5892 3.98202 88.5027 3.60403 88.3428 3.22079C88.1648 2.88164 88.0376 2.51814 87.9653 2.14194C87.9417 1.92407 87.766 1.7587 87.7031 1.56708C87.6402 1.37545 87.4567 1.33608 87.2364 1.30458C86.6885 1.14971 85.7552 1.22846 85.459 1.21533C84.9766 1.19433 84.9766 1.19433 85.071 1.6327C85.0978 1.74436 85.1049 1.85984 85.092 1.97394L84.9609 5.00838C84.9805 5.23903 84.9455 5.47108 84.8586 5.68561C84.8219 5.71449 84.8193 5.77748 84.8167 5.83786C85.0081 6.40484 84.8036 6.98496 84.8508 7.54407C84.878 7.84273 84.815 8.14269 84.6699 8.40505C84.6332 8.43392 84.6306 8.49692 84.6279 8.5573C84.51 8.81979 84.856 9.06391 84.662 9.39728C84.5126 9.60728 84.5703 9.89077 84.5572 10.169L84.5205 11.0352C84.5205 11.1901 84.6594 11.1035 84.7616 11.1376C85.0868 11.2653 85.4472 11.2709 85.7762 11.1534C85.9545 11.1009 86.6151 11.198 86.7619 11.1114C86.9822 10.9696 86.8904 10.6835 86.8694 10.4656C86.9264 10.2124 86.965 9.95535 86.9848 9.69652C86.9533 9.63352 87.0293 9.51278 87.1027 9.48653C87.3862 9.41864 87.6841 9.44727 87.9495 9.5679C88.0041 9.59569 88.0507 9.6371 88.0847 9.68813C88.1186 9.73917 88.1389 9.79811 88.1435 9.85927C88.1498 10.3141 88.1209 10.7687 88.057 11.219C88.0132 11.4636 87.9861 11.7109 87.9757 11.9592C87.9967 12.7047 87.8866 13.3819 87.8368 14.1537C87.8368 14.3085 87.7188 14.3952 87.5432 14.445C87.2933 14.5026 87.0332 14.498 86.7855 14.4319C86.7514 14.4319 86.6885 14.3322 86.6885 14.3033L86.7279 13.5919C86.7462 13.2822 86.8668 12.9803 86.8852 12.6706C86.9054 12.5536 86.888 12.4331 86.8353 12.3267C86.7357 12.227 86.5915 12.3451 86.4867 12.3267C86.0017 12.3005 85.2021 12.2611 84.7145 12.269C84.5047 12.269 84.4339 12.3188 84.4261 12.5052C84.3684 13.8676 84.3448 15.2299 84.2871 16.5634C84.2986 16.7122 84.3268 16.8592 84.371 17.0017C84.4273 17.2584 84.4156 17.5254 84.3369 17.7761C84.2635 17.9283 84.3553 18.1488 84.2137 18.33C84.1403 18.4507 84.3002 18.6449 84.3265 18.7998C84.3491 18.9227 84.3553 19.0481 84.3448 19.1726C84.281 19.6133 84.2503 20.0581 84.2531 20.5034C84.2662 20.9391 84.253 21.3723 84.2295 21.8159C84.1849 22.8055 83.9856 23.698 84.101 24.7558V25.0341C84.0967 25.0682 84.0999 25.1029 84.1106 25.1356C84.1212 25.1684 84.1389 25.1983 84.1625 25.2234C84.186 25.2485 84.2148 25.2681 84.2468 25.2807C84.2788 25.2934 84.3131 25.2988 84.3474 25.2966L85.7893 25.3674C86.0515 25.3806 86.138 25.4488 86.1196 25.7585V25.9134C86.0593 26.4069 86.0567 26.4384 85.5167 26.4069C84.7538 26.3649 83.7025 26.3177 82.9396 26.2599C82.4687 26.2483 81.9978 26.2852 81.5344 26.3702C81.0843 26.2055 80.605 26.1358 80.1266 26.1654Z" fill="#FAF4E5"/>
<path d="M91.2161 26.924C90.9356 26.8374 90.5004 26.7035 90.2015 26.8348C89.9026 26.966 89.6772 26.6353 89.7008 26.2967V26.1418C89.7008 25.9869 89.7558 25.8793 89.8869 25.8137C90.0398 25.7066 90.2253 25.6565 90.4112 25.6719C90.8255 25.7375 90.8989 25.622 90.9592 25.3149C91.1138 24.6456 91.2869 23.8187 91.5071 23.1861C91.6801 22.7346 91.6591 22.2359 91.8977 21.7896C91.8767 21.2909 92.0838 20.842 92.2306 20.359C92.3696 19.9364 92.4142 19.4744 92.5872 19.0466C92.755 18.6896 92.7602 18.2853 92.8677 17.8916C93.0643 17.2564 93.1299 16.5791 93.295 15.9413C93.4759 15.1538 93.6935 14.3295 93.9111 13.5421C94.1113 12.9795 94.263 12.4007 94.3646 11.8122C94.3646 11.4684 94.5665 11.2111 94.598 10.9014C94.5879 10.6023 94.6673 10.3071 94.826 10.0535C94.8444 9.52853 95.1459 9.02716 95.2036 8.47855C95.2534 7.98506 95.5155 7.57557 95.5313 7.07946C95.8327 6.64372 95.7751 6.13973 95.9691 5.69349C96.0892 5.43485 96.1772 5.16245 96.2312 4.88238C96.4165 4.45671 96.552 4.01101 96.635 3.55416C96.6631 3.3241 96.725 3.09945 96.8185 2.88742C97.0256 2.34931 97.1619 1.80332 97.3716 1.26521C97.4791 0.965965 97.5656 0.881966 97.8619 0.91609C98.3469 0.939715 98.7952 0.99484 99.2776 1.05259C99.6079 1.12346 99.8019 1.11821 99.8019 1.45945L99.9198 2.00544C99.7311 2.60655 99.9801 3.01342 100.014 3.61191C100.054 4.45976 100.095 5.27874 100.172 6.10035C100.172 6.32085 100.224 6.54397 100.232 6.76446C100.215 6.96805 100.237 7.17298 100.297 7.3682C100.297 7.3997 100.326 7.43382 100.321 7.46532C100.244 7.99659 100.257 8.53709 100.36 9.06391C100.454 9.59932 100.513 10.1404 100.536 10.6835C100.536 11.2452 100.667 11.7965 100.56 12.3136C100.486 12.5761 100.596 12.8202 100.625 13.1011C100.657 13.6261 100.785 14.2193 100.701 14.802C100.684 14.938 100.684 15.0756 100.701 15.2115C100.764 15.999 100.856 16.7865 100.843 17.6107C100.8 17.7411 100.792 17.8805 100.819 18.015C101.01 18.8261 100.819 19.6739 100.968 20.4798C100.843 21.3381 101.058 23.0312 100.987 23.0522C100.809 23.1205 101.102 23.4145 101.013 25.9082C101.014 26.2049 101.035 26.5012 101.073 26.7954C101.073 26.8305 101.082 26.8649 101.1 26.8953C101.117 26.9257 101.142 26.951 101.173 26.9685C101.203 26.9861 101.237 26.9954 101.272 26.9954C101.307 26.9954 101.342 26.9862 101.372 26.9686C101.469 26.9565 101.568 26.9619 101.663 26.9844C102.214 27.0106 102.235 27.0763 102.13 27.7194C102.117 27.83 102.063 27.9319 101.979 28.0051C101.896 28.0784 101.788 28.1178 101.676 28.1157C101.077 28.1292 100.478 28.0683 99.8936 27.9346L99.5161 27.8795V27.911L98.7585 27.8008C98.415 27.722 98.0454 27.827 97.7859 27.6039C97.4225 27.631 97.0572 27.6143 96.6979 27.554C96.644 27.5495 96.5916 27.5341 96.5438 27.5086C96.4961 27.4832 96.454 27.4483 96.4201 27.4061C96.3863 27.3638 96.3614 27.3151 96.3469 27.2629C96.3325 27.2108 96.3288 27.1562 96.3361 27.1025C96.3261 26.9569 96.3331 26.8107 96.3571 26.6668C96.3501 26.6282 96.3586 26.5884 96.3807 26.556C96.4027 26.5236 96.4366 26.5012 96.475 26.4935C96.819 26.4747 97.1639 26.4878 97.5053 26.5329C97.6967 26.5592 97.8094 26.4489 97.8042 26.2284C97.8205 26.0722 97.8205 25.9147 97.8042 25.7585C97.9169 25.3989 97.7859 25.1627 97.7911 24.8818C97.7644 24.746 97.7495 24.6081 97.7465 24.4697C97.8119 24.0452 97.8119 23.6132 97.7465 23.1887C97.736 23.0137 97.7264 22.8387 97.7177 22.6637C97.8016 22.2674 97.5525 21.6138 97.66 21.5639C97.7675 21.514 97.6233 20.8105 97.5997 20.464C97.5866 20.3065 97.5237 20.2672 97.39 20.2514C97.0439 20.0519 96.69 20.1963 96.4357 20.0729C96.0372 20.0257 95.6361 20.0099 95.2376 19.9653C94.9073 19.9285 94.5639 19.9837 94.2519 19.7632C94.0763 19.8393 93.8928 19.6634 93.7119 19.7999C93.607 19.8524 93.5362 19.876 93.4916 19.9942C93.2819 20.7528 93.0434 21.4746 92.9018 22.2385C92.7676 22.8564 92.588 23.4636 92.3643 24.055C92.3481 24.1597 92.3163 24.2615 92.27 24.3568C92.1677 24.7506 92.0812 25.3044 91.979 25.6982C91.979 25.8215 92.0262 25.8898 92.1494 25.9318C92.3834 25.9598 92.6189 25.9729 92.8546 25.9712C92.9526 25.951 93.0537 25.9513 93.1516 25.972C93.2495 25.9928 93.3421 26.0336 93.4235 26.0919C93.4957 26.2354 93.5223 26.3975 93.4998 26.5566C93.4773 26.7156 93.4068 26.864 93.2976 26.9818C93.1579 27.052 93.0123 27.11 92.8625 27.155C92.6265 26.945 92.1992 27.0579 91.9396 27.0946C91.7981 26.8531 91.4337 27.0054 91.2161 26.924ZM94.5298 18.6896L95.7331 18.8234C96.2364 18.944 96.7519 19.0057 97.2694 19.0072C97.4398 19.0072 97.5525 18.9179 97.5316 18.7604C97.4801 18.4777 97.4476 18.1918 97.4346 17.9047C97.3271 17.3797 97.4582 16.8784 97.3087 16.4216C97.1016 15.8651 97.2039 15.285 97.1724 14.6892C97.1375 14.5545 97.119 14.4161 97.1173 14.277C97.117 13.709 97.0784 13.1416 97.002 12.5787C96.9469 11.8542 97.002 11.1429 96.8604 10.442C96.9994 9.86452 96.7765 9.31066 96.8421 8.72529C96.8565 8.37843 96.8355 8.031 96.7792 7.68844C96.7792 7.65694 96.7477 7.65432 96.7503 7.62282L96.6717 7.67532L96.2968 9.09804C96.0975 9.91702 95.7724 10.7229 95.6676 11.5839V11.6442C95.3609 12.5157 95.1957 13.4003 94.9283 14.2692C94.8245 14.5348 94.7369 14.8066 94.6661 15.0829C94.6295 15.4241 94.5593 15.7609 94.4564 16.0883C94.286 16.4138 94.3122 16.8206 94.1706 17.1802C94.0212 17.6317 94.0055 18.1278 93.8246 18.5767C93.8246 18.6371 93.9059 18.7709 93.9766 18.7473C94.1522 18.6777 94.3434 18.6568 94.5298 18.687V18.6896Z" fill="#FAF4E5"/>
<path d="M103.087 28.0003C103.098 27.909 103.125 27.8203 103.165 27.7378C103.189 27.6536 103.243 27.5813 103.318 27.5356C103.392 27.4898 103.481 27.4739 103.567 27.491C103.858 27.5094 104.169 27.596 104.458 27.617C104.964 27.7089 104.964 27.7089 105.048 27.2522C105.132 26.7954 105.263 26.2521 105.357 25.7349C105.449 25.5712 105.516 25.3941 105.554 25.2099C105.531 25.0347 105.541 24.8568 105.583 24.685C105.645 23.9097 105.808 23.1457 106.065 22.4118C106.072 22.3355 106.063 22.2586 106.039 22.186C106.053 22.0084 106.085 21.8326 106.133 21.661C106.568 20.7633 106.55 19.7527 106.788 18.8208C106.843 18.7075 106.866 18.5813 106.854 18.456C106.854 18.0465 107.161 17.7236 107.116 17.2432C107.053 16.8233 107.239 16.3823 107.31 15.9885L108.542 9.25292C108.608 8.88806 108.752 8.50482 108.6 8.12945C108.571 8.0927 108.6 8.06907 108.616 8.03758C108.527 7.70683 108.865 7.48371 108.812 7.16084C108.778 7.01288 108.781 6.85863 108.82 6.712C108.86 6.56536 108.936 6.43095 109.04 6.32086C109.086 6.24981 109.114 6.16877 109.122 6.08462L109.512 3.95054C109.552 3.73792 109.392 3.58042 109.116 3.62767C108.642 3.73004 108.178 3.58567 107.696 3.53317C107.617 3.5097 107.547 3.46607 107.49 3.40664C107.434 3.34722 107.395 3.27409 107.376 3.19455C107.382 3.04936 107.406 2.90555 107.449 2.76669C107.475 2.61444 107.638 2.54619 107.832 2.51732C107.97 2.52558 108.106 2.54935 108.238 2.58819C108.927 2.70894 109.615 2.83319 110.301 2.96093C110.777 3.07082 111.258 3.15234 111.743 3.20505C112.228 3.26805 112.632 3.53842 113.128 3.54367C113.243 3.54367 113.343 3.61979 113.416 3.63292C114.216 4.01879 114.973 4.05291 115.775 4.4204C116.195 4.60677 117.034 4.79577 117.306 5.11339C117.991 5.96912 118.853 6.36549 119.031 7.36559C119.118 7.80133 119.637 9.55479 119.634 9.99053C119.632 10.4263 119.398 10.7938 119.469 11.2584C119.469 11.387 119.28 11.5629 119.244 11.7125C119.112 12.0941 119.015 12.4868 118.953 12.8858C118.74 13.8859 118.444 14.0356 117.87 14.8834C117.692 15.1459 116.641 16.0515 116.502 16.3376C116.09 17.0044 115.453 16.8626 114.803 17.3062C114.462 17.5451 113.542 17.5267 113.083 17.5215C112.907 17.5215 112.941 17.5215 112.941 17.6816C113.28 17.9126 114.624 18.4087 114.902 19.1752C115.199 19.8813 115.217 21.4143 115.256 22.1256C115.296 22.837 115.411 23.5011 115.419 24.1731C115.427 24.8451 115.448 25.4567 115.419 26.0893C115.407 26.6311 115.466 27.1721 115.594 27.6984C115.76 28.3783 115.594 28.6854 115.673 29.381C115.661 29.5208 115.692 29.661 115.762 29.7823C115.832 29.9036 115.939 30 116.066 30.0582C116.457 30.2236 116.169 30.1816 116.575 30.2866C116.785 30.3732 116.855 30.4887 116.761 30.7197L116.698 30.9586C116.67 31.0578 116.605 31.1428 116.518 31.1968C116.43 31.2507 116.325 31.2697 116.224 31.2499C115.551 31.0749 114.877 30.9 114.202 30.725C114.048 30.6856 113.337 30.4808 113.303 30.347C113.206 30.0687 112.679 29.7826 112.648 29.4912C112.608 28.814 112.341 27.9556 112.296 27.2784C111.971 26.7902 112.223 26.2757 112.1 25.7717C112.181 24.9632 112.019 24.1652 112.032 23.3436C112.046 23.2622 112.028 23.1785 111.982 23.11C111.751 22.1388 111.72 21.1492 111.62 20.1753C111.62 19.8892 111.725 18.8628 111.678 18.6003C111.61 18.2696 111.565 17.9756 111.526 17.6501C111.51 17.553 111.484 17.5136 111.347 17.4874C111.295 17.4672 111.239 17.459 111.183 17.4636C111.127 17.4681 111.073 17.4852 111.025 17.5136C110.975 17.5445 110.94 17.5934 110.925 17.6501C110.823 17.9782 110.697 19.0912 110.433 19.3511C110.385 19.4036 110.433 19.5401 110.448 19.6136C110.498 19.8773 110.441 20.15 110.291 20.3722C110.185 20.5429 110.111 20.7314 110.073 20.9287L108.605 28.0606C108.506 28.3888 108.506 28.3888 108.825 28.4229C109.211 28.4728 109.57 28.4833 109.955 28.5358C110.106 28.5479 110.248 28.6116 110.358 28.7163C110.467 28.8211 110.537 28.9603 110.556 29.1106C110.611 29.3127 110.459 29.4072 110.362 29.5437C110.183 29.759 110.176 29.7878 109.948 29.6435C109.822 29.6172 109.74 29.5359 109.604 29.57C109.528 29.5987 109.447 29.6138 109.366 29.6146C109.073 29.4776 108.755 29.4 108.432 29.3862C108.11 29.3886 107.79 29.3444 107.481 29.255C106.163 28.9907 104.843 28.744 103.522 28.5148C103.142 28.4491 103.063 28.3415 103.087 28.0003ZM112.787 16.3429C112.961 16.2927 113.125 16.2099 113.269 16.0988C113.736 15.6991 114.143 15.233 114.475 14.7154C114.976 13.9279 114.999 13.6891 115.201 12.7835C115.217 12.6907 115.25 12.6016 115.298 12.521C115.462 12.288 115.562 12.0167 115.589 11.7335L115.781 10.8883C116.093 10.0063 116.066 8.98255 116.069 7.9667L116.03 7.64121C115.844 7.11622 116.247 6.6726 115.938 6.19224C115.474 5.20001 115.348 5.23676 114.339 4.79839C114.2 4.73802 114.053 4.70652 113.951 4.65402C113.738 4.5779 113.623 4.58578 113.592 4.73802L113.151 6.8616C113.107 7.07422 113.122 7.36296 112.978 7.52046C112.764 7.87146 112.631 8.26619 112.59 8.67544L112.346 9.85928C112.123 11.1114 111.741 11.9172 111.822 13.2323C111.729 13.9724 111.566 14.702 111.334 15.411C111.203 15.6998 111.29 15.9702 111.198 16.2379C111.181 16.2998 111.181 16.365 111.198 16.4269C111.242 16.4712 111.296 16.5045 111.355 16.524C112.034 16.4006 112.165 16.6185 112.797 16.3429H112.787Z" fill="#FAF4E5"/>
<path d="M119.218 32.0925C118.746 31.9902 118.384 31.8563 117.98 31.746C117.923 31.7354 117.872 31.7047 117.835 31.6595C117.799 31.6143 117.779 31.5574 117.781 31.4993C117.78 31.3633 117.795 31.2276 117.825 31.0951C117.883 30.7591 117.949 30.6462 118.258 30.7328C118.567 30.8194 118.811 30.9166 119.123 30.9953C119.237 31.033 119.355 31.056 119.474 31.0636C119.506 31.0636 119.553 31.0216 119.571 30.9612C119.571 30.3811 119.852 29.8482 119.941 29.2943C119.994 28.9872 120.292 28.7694 120.248 28.4465C120.243 28.1211 120.323 27.8001 120.479 27.5146C120.696 26.8689 120.762 26.1444 121.142 25.5459C121.097 25.0839 121.289 24.6534 121.404 24.2072C121.506 23.8502 121.559 23.4197 121.823 23.1021C121.999 22.4747 122.319 21.8579 122.298 21.1754C122.324 20.9804 122.367 20.788 122.426 20.6005C123.027 18.3562 123.659 16.1198 124.283 13.9122C124.45 13.1877 124.749 12.5315 124.768 11.7965C125.03 11.4474 125.066 11.009 125.218 10.6048L125.903 8.1898C125.979 7.92731 125.924 7.84069 125.599 7.74881L124.55 7.45745C124.306 7.3577 124.267 7.21857 124.214 6.9797C124.214 6.81958 124.288 6.71721 124.283 6.58071C124.291 6.53623 124.309 6.49415 124.336 6.45729C124.362 6.42043 124.396 6.38965 124.435 6.36702C124.475 6.34439 124.518 6.33043 124.563 6.32609C124.608 6.32175 124.654 6.32712 124.697 6.34185C125.37 6.59121 125.924 6.84058 126.697 6.86683C127.13 6.86683 127.575 7.08733 128.052 7.19495C128.451 7.31307 128.857 7.53094 129.298 7.50207C129.505 7.46795 130.137 7.85381 130.346 7.95093C130.556 8.04806 130.488 8.51267 130.464 9.09016C130.386 9.40221 130.364 9.72596 130.401 10.0456C130.411 10.2994 130.383 10.5531 130.32 10.799C130.27 10.997 130.258 11.2029 130.286 11.4054C130.254 12.1737 130.167 12.9387 130.024 13.6943C129.975 14.0096 129.951 14.3281 129.95 14.6472C129.874 15.7286 129.688 16.776 129.578 17.8155C129.452 18.7841 129.361 19.7632 129.271 20.7029C129.227 21.4064 129.148 22.0967 129.075 22.7582C129.075 22.9665 129.075 23.1747 129.075 23.383L129.122 23.4643C129.174 23.4171 129.216 23.3987 129.227 23.3672C129.358 23.0462 129.522 22.7393 129.715 22.4511C129.901 22.2201 129.911 21.8631 130.173 21.6243C130.215 21.6059 130.236 21.5481 130.255 21.4878C130.433 20.7318 130.913 20.0755 131.193 19.3511C131.407 18.8156 131.67 18.3015 131.98 17.8155C132.145 17.5847 132.28 17.3343 132.383 17.07C132.484 16.86 132.603 16.6597 132.74 16.4715C133.159 15.796 133.581 15.1223 134.006 14.4503C134.431 13.7757 134.848 13.1378 135.207 12.4396C135.58 11.6988 136.023 10.9956 136.531 10.3396C136.569 10.2894 136.619 10.2497 136.677 10.224C136.735 10.1983 136.798 10.1875 136.861 10.1926C137.083 10.1652 137.308 10.1886 137.519 10.2609C138.306 10.568 139.121 10.8384 139.902 11.1271C140.155 11.2536 140.432 11.3235 140.715 11.3319C140.948 11.3529 141.037 11.5524 141.213 11.6206L142.487 12.1115C142.699 12.1928 142.77 12.3215 142.749 12.4816C142.756 12.5795 142.739 12.6776 142.697 12.7667C142.656 12.8557 142.593 12.9328 142.514 12.9906C142.434 13.0484 142.342 13.085 142.244 13.097C142.147 13.109 142.048 13.0959 141.957 13.0591L140.972 12.6811C140.947 12.6616 140.919 12.648 140.888 12.6413C140.858 12.6347 140.826 12.6352 140.796 12.6429C140.766 12.6505 140.738 12.665 140.714 12.6853C140.691 12.7056 140.672 12.7311 140.66 12.7598C140.555 12.9505 140.468 13.1498 140.398 13.3557C140.33 13.7277 140.17 14.0769 139.934 14.3715C139.729 14.6851 139.573 15.0275 139.47 15.3874L138.177 18.7998C138.033 19.1166 137.956 19.4598 137.952 19.8078C137.933 20.1263 137.805 20.4286 137.59 20.6635C137.424 20.8292 137.33 21.0536 137.328 21.2883C137.35 21.3429 137.35 21.4043 137.328 21.4589C137.22 21.5695 137.136 21.7012 137.082 21.8458C137.027 21.9903 137.003 22.1445 137.01 22.2989C137.01 22.5981 136.824 22.8921 136.704 23.2097L136.397 24.0208C136.267 24.3137 136.154 24.6134 136.056 24.9186C136.012 25.1338 135.763 25.2047 135.794 25.5144C135.826 25.7244 135.673 25.9318 135.584 26.1654C135.133 27.3545 134.685 28.541 134.274 29.7406C134.064 30.2918 133.783 30.8457 133.731 31.4573C133.698 31.7157 133.615 31.9653 133.487 32.1923C133.338 32.3996 133.34 32.6674 133.162 32.8643C133.162 32.8931 133.11 32.9115 133.11 32.9115C133.052 33.6202 132.645 34.224 132.496 34.8986C132.472 35.0561 132.512 35.1375 132.758 35.2293C132.921 35.2582 133.448 35.5286 133.66 35.6126C133.711 35.6329 133.753 35.6702 133.779 35.718C133.805 35.7659 133.814 35.8214 133.804 35.8751L133.681 36.1927C133.558 36.5103 133.432 36.8279 133.107 36.7676C132.935 36.7257 132.776 36.6408 132.645 36.5208C132.389 36.4387 132.137 36.3423 131.89 36.2321C131.799 36.1979 131.657 36.2084 131.565 36.1743C131.002 35.9276 130.517 35.8751 130.032 35.4708C130.014 35.448 129.991 35.4307 129.964 35.4209C129.937 35.4111 129.908 35.4093 129.88 35.4157C129.618 35.3553 129.392 35.337 129.138 35.2792C128.883 35.2215 128.724 34.9983 128.427 34.9616C128.17 34.8767 127.907 34.8075 127.641 34.7542C127.255 34.686 127.116 34.476 127.221 34.0849C127.227 33.9946 127.247 33.9059 127.282 33.8224C127.342 33.7462 127.434 33.5809 127.567 33.5914C127.816 33.63 128.062 33.6826 128.304 33.7489C128.469 33.7725 128.632 33.9956 128.784 33.951C128.978 33.888 128.907 33.5021 129.03 33.3472C129.133 32.4626 129.555 31.6883 129.801 30.8588C130.079 30.0713 130.388 29.2838 130.635 28.4964C130.881 27.7089 131.19 26.9214 131.434 26.1182C131.537 25.8268 131.759 25.6089 131.765 25.2808C131.77 24.9527 131.99 24.6377 132.103 24.3174L133.718 19.7291C134.059 18.7657 134.352 17.8181 134.69 16.8416C134.824 16.461 134.811 16.0541 135.047 15.7181C135.068 15.6604 135.173 15.4556 135.07 15.432C135.045 15.4229 135.021 15.4087 135.001 15.3902C134.98 15.3717 134.964 15.3493 134.953 15.3244C134.908 15.3428 134.863 15.3585 134.853 15.3874C134.493 15.9719 134.135 16.5581 133.778 17.1461C133.579 17.5031 133.403 17.8995 133.159 18.2748C132.96 18.6318 132.829 19.0124 132.606 19.3248C132.319 19.7609 132.094 20.2343 131.935 20.7318C131.814 21.0835 131.502 21.3381 131.45 21.7109C131.138 21.8658 131.322 22.1912 131.143 22.3907C131.009 22.5804 130.891 22.7815 130.792 22.9919C130.598 23.4486 130.21 23.8423 130.108 24.3621C130.087 24.4198 130.034 24.4671 130.016 24.5274C129.89 24.6823 129.646 24.7611 129.652 24.9606C129.657 25.1601 129.51 25.2729 129.46 25.4199C129.161 26.2074 128.613 26.8689 128.412 27.6826C128.315 28.0764 128.047 28.3441 127.929 28.6985C127.815 29.0568 127.653 29.3983 127.449 29.7143C127.266 29.948 127.187 30.2813 126.978 30.5018C126.931 30.61 126.915 30.7291 126.933 30.8457C126.915 30.9034 126.933 30.9743 126.852 30.9822C126.718 31.0724 126.562 31.125 126.4 31.1347C126.239 31.1444 126.078 31.1108 125.934 31.0373C125.766 30.9065 125.569 30.8167 125.36 30.7748C125.153 30.7748 125.022 30.5359 125.035 30.2787C125.093 29.4518 125.103 28.6434 125.226 27.8034C125.326 27.1524 125.53 26.4909 125.384 25.8399C125.523 24.9422 125.42 24.0025 125.585 23.1126C125.607 22.9945 125.607 22.8737 125.585 22.7556C125.412 22.3776 125.585 21.8159 125.585 21.43C125.585 20.3617 125.735 19.5007 125.8 18.4192C125.842 17.2984 125.853 16.1381 125.926 15.0068C125.955 14.2718 126.026 13.5184 126.128 12.773C126.128 12.7441 126.042 12.6837 126.015 12.6417C125.97 12.6624 125.933 12.6975 125.911 12.7415C125.599 13.6838 125.323 14.6367 125.045 15.5869C124.967 15.8494 124.959 16.1434 124.744 16.3744C124.692 16.4242 124.71 16.4925 124.702 16.524C124.752 16.86 124.597 17.1382 124.503 17.4663C124.201 18.6371 123.863 19.7973 123.525 20.9575C123.477 21.0615 123.445 21.1721 123.431 21.2856C123.472 22.0075 123.168 22.6637 122.982 23.3173C122.927 23.6276 122.805 23.9222 122.626 24.181C122.53 24.3881 122.465 24.6084 122.434 24.8346C122.416 24.8949 122.466 24.9737 122.455 25.0026C122.449 25.265 122.374 25.5211 122.238 25.7454C122.104 25.9633 122.18 26.1812 122.08 26.4095C122.04 26.6566 121.951 26.8931 121.818 27.1051C121.758 27.1522 121.712 27.2152 121.685 27.287C121.658 27.3589 121.651 27.4367 121.666 27.512C121.792 27.9031 121.404 28.1787 121.459 28.5804C121.483 28.6197 121.433 28.6696 121.383 28.7195C121.292 28.8108 121.224 28.9216 121.182 29.0436C121.141 29.1655 121.128 29.2953 121.144 29.423C121.161 29.481 121.161 29.5426 121.145 29.6007C121.128 29.6587 121.095 29.7109 121.05 29.7511C120.871 30.0135 120.779 30.3259 120.788 30.6436C120.78 30.8429 120.756 31.0412 120.717 31.2368C120.706 31.2621 120.7 31.2895 120.701 31.3172C120.701 31.3449 120.708 31.3721 120.72 31.397C120.732 31.422 120.749 31.444 120.77 31.4617C120.791 31.4793 120.816 31.4922 120.843 31.4993C121.317 31.6069 121.614 31.8563 122.101 31.809C122.217 31.8773 122.481 31.893 122.447 32.0112L122.348 32.3366C122.337 32.4141 122.311 32.4885 122.27 32.5551C122.229 32.6217 122.175 32.6791 122.111 32.7235C122.047 32.768 121.974 32.7986 121.898 32.8133C121.821 32.828 121.742 32.8266 121.666 32.8091C121.464 32.7758 121.265 32.7267 121.071 32.6621C120.547 32.5073 120.022 32.1949 119.684 32.2553L119.218 32.0925Z" fill="#FAF4E5"/>
<path d="M139.283 39.2691C138.864 38.8465 138.728 38.1798 138.636 37.5655C138.636 37.4947 138.468 37.4605 138.413 37.5025L138.292 37.618C138.074 37.8211 137.823 37.9869 137.551 38.1089C137.165 38.3504 137.189 38.6339 136.806 38.3714C136.651 38.2375 136.447 38.0538 136.578 37.9068C136.942 37.4553 137.265 36.5156 137.48 36.0011C137.59 35.678 137.732 35.3667 137.904 35.0718C138.098 34.7831 138.19 34.3867 138.384 34.098C138.434 34.0489 138.472 33.9884 138.494 33.9217C138.516 33.855 138.521 33.784 138.51 33.7147L138.534 33.657C139.074 32.9771 139.241 32.1398 139.627 31.3943C139.677 31.3039 139.756 31.2334 139.851 31.1947C139.947 31.156 140.053 31.1514 140.151 31.1817L140.497 31.3287C140.812 31.4625 140.98 31.5019 140.901 31.7723C140.754 32.1135 140.565 32.6385 140.45 32.9955C140.256 33.4522 140.274 34.1689 140.096 34.665C139.876 35.19 139.965 35.7149 139.865 36.2872C139.784 36.7256 139.981 37.0143 139.897 37.4527C140.049 37.9251 139.989 38.3058 140.306 38.7179C140.554 39.0274 140.885 39.2596 141.26 39.3872C141.599 39.494 141.958 39.5192 142.309 39.4607C143.011 39.2744 143.499 39.1615 144.002 38.647C144.437 38.0375 144.76 37.3546 144.954 36.6311C145.089 35.5731 145.089 34.5023 144.954 33.4444C144.841 32.7094 144.831 31.9875 144.587 31.2657C144.679 30.7407 144.388 30.1894 144.385 29.6907C144.382 29.192 144.183 28.6853 144.443 28.5279C144.091 28.3704 143.947 27.5645 144.005 27.2521C144.249 27.2233 143.926 26.3728 143.879 25.9397C143.84 25.5853 143.937 25.0866 143.648 24.7611C143.806 24.7611 143.572 23.4827 143.546 22.7976C143.523 22.4784 143.539 22.1575 143.593 21.8421C143.609 21.2436 143.814 20.6583 143.759 20.0309C143.909 19.5316 144.096 19.0438 144.317 18.5714C144.607 17.9875 144.992 17.4554 145.455 16.9965C145.801 16.2694 145.948 16.3954 146.629 15.9465C146.818 15.7916 147.119 15.852 147.332 15.7391C148.05 15.306 148.779 15.2483 149.765 15.2745C150.324 15.3038 150.874 15.4345 151.387 15.6604C152.145 15.9943 152.82 16.4907 153.364 17.1146C153.615 17.3738 153.768 17.7127 153.797 18.0727C153.833 18.2617 153.902 18.2932 154.119 18.1908C154.41 18.0202 154.793 17.9283 155.029 17.7C155.055 17.6448 155.102 17.6317 155.165 17.5923C155.256 17.5484 155.357 17.5287 155.458 17.5351C155.559 17.5416 155.657 17.5739 155.742 17.6291C155.957 17.8023 156.059 18.0255 155.965 18.2197C155.932 18.3297 155.882 18.4335 155.815 18.5268C155.325 19.0124 155.076 19.6135 154.793 20.1989C154.619 20.5996 154.394 20.9762 154.124 21.3198C153.846 21.6958 153.629 22.114 153.482 22.5587C153.244 22.998 152.972 23.4183 152.669 23.8161C152.636 23.85 152.593 23.8726 152.545 23.8806C152.498 23.8886 152.45 23.8817 152.407 23.8607C152.139 23.7617 151.877 23.6487 151.621 23.5221C151.487 23.4591 151.401 23.383 151.469 23.2438C151.568 22.9472 151.846 22.018 151.993 21.7083C152.15 21.3508 152.22 20.9614 152.198 20.5717C152.206 20.4791 152.235 20.3896 152.281 20.3092C152.78 19.5217 152.53 18.9967 152.397 18.1042C152.342 17.3167 151.741 16.8101 150.918 16.5056L150.813 16.4584C150.25 16.5109 149.683 16.2904 149.151 16.4584C148.592 16.6088 148.087 16.9157 147.696 17.343C147.361 17.7393 147.486 17.826 147.353 18.1305C146.936 18.9967 147.036 18.7709 147.025 19.5427C146.983 20.0457 147.019 20.5523 147.133 21.0441C147.232 21.7319 147.334 21.9471 147.476 22.6191L147.586 23.1782C147.644 23.4066 147.368 23.488 147.607 23.6638C147.846 23.8397 147.686 24.5484 147.869 24.8661C147.931 25.1133 147.961 25.3673 147.958 25.622C148.019 26.2178 148.116 26.8095 148.247 27.3939C148.427 28.0552 148.529 28.7353 148.551 29.4203C148.551 29.7327 148.446 30.0556 148.637 30.3889C148.664 31.3969 148.766 31.8248 148.553 32.8249C148.446 33.2895 148.228 33.7357 148.226 34.2161C148.218 34.3646 148.174 34.509 148.097 34.6361C147.974 34.8986 147.888 35.5338 147.796 35.7989C147.447 36.6274 147.051 37.4354 146.611 38.2191C146.459 38.4554 145.478 39.6996 145.224 39.8519C144.726 40.1957 144.293 40.2613 143.74 40.5816L143.478 40.6656C142.817 40.831 141.729 40.6262 140.964 40.3453C140.814 40.3111 140.674 40.2468 140.55 40.1563C140.104 39.8956 139.681 39.5989 139.283 39.2691Z" fill="#FAF4E5"/>
<path d="M58.2597 38.5814C57.6698 38.5814 56.6867 38.6496 56.5111 38.6496C56.3354 38.6496 56.2253 38.5998 56.2253 38.4633C56.2253 38.0039 57.1822 38.5131 57.1822 36.3633C57.1822 34.2634 56.2306 34.7595 56.2306 34.3001C56.2306 34.1689 56.2987 34.119 56.4927 34.119C56.6867 34.119 57.6646 34.1951 58.2545 34.1951C58.9413 34.1951 60.281 34.077 60.5851 34.077C60.9311 34.077 61.0648 34.3054 61.0648 34.9039C61.0648 35.778 61.0019 36.0982 60.7738 36.0982C60.3308 36.0982 60.5458 34.7096 59.2612 34.7096C58.1784 34.7096 58.1863 36.0641 58.6844 36.0641C59.2953 36.0641 59.2743 35.085 59.6151 35.085C59.9559 35.085 59.7671 35.5155 59.7671 36.3633C59.7671 37.2112 59.9821 37.6495 59.6151 37.6495C59.2481 37.6495 59.2953 36.6704 58.6844 36.6704C58.1837 36.6704 58.1784 38.0249 59.2612 38.0249C60.5458 38.0249 60.3308 36.6284 60.7738 36.6284C61.0098 36.6284 61.0648 36.9067 61.0648 37.8307C61.0648 38.4554 60.9338 38.6916 60.5851 38.6916C60.3046 38.6995 58.9466 38.5814 58.2597 38.5814Z" fill="#FAF4E5"/>
<path d="M62.879 38.4081C62.6771 38.4081 62.6168 38.6234 62.4622 38.6234C62.3075 38.6234 62.1712 38.3451 62.1712 37.8359C62.1712 37.2243 62.2551 36.9881 62.4491 36.9881C62.7348 36.9881 63.094 38.08 64.1217 38.08C64.5306 38.08 64.8505 37.8727 64.8505 37.6364C64.8505 36.8489 62.2288 37.0799 62.2288 35.4341C62.2288 34.6466 62.8475 34.1347 64.1846 34.1347C64.7954 34.1347 65.3302 34.3421 65.5295 34.3421C65.7287 34.3421 65.8283 34.1479 65.9935 34.1479C66.2006 34.1479 66.2924 34.4681 66.2924 34.9353C66.2924 35.4026 66.2032 35.6861 66.0302 35.6861C65.7864 35.6861 65.3774 34.728 64.4074 34.728C64.0954 34.728 63.8385 34.854 63.8385 35.1165C63.8385 36.0194 66.4601 35.6415 66.4601 37.2768C66.4601 38.1246 65.7444 38.6811 64.5097 38.6811C63.5711 38.6654 63.073 38.4081 62.879 38.4081Z" fill="#FAF4E5"/>
<path d="M68.0541 38.4554C68.0541 37.996 69.0451 38.5053 69.0451 36.4053C69.0451 35.3921 68.9559 34.7805 68.5941 34.7805C67.9073 34.7805 68.1301 36.5996 67.6713 36.5996C67.3672 36.5996 67.3095 35.7727 67.3095 34.9327C67.3095 34.161 67.4485 34.1059 67.6136 34.1059C68.2035 34.1059 68.9245 34.203 69.6664 34.203C70.4083 34.203 71.1292 34.1059 71.7191 34.1059C71.8921 34.1059 72.0232 34.161 72.0232 34.9327C72.0232 35.7727 71.9603 36.5996 71.6614 36.5996C71.2105 36.5996 71.4334 34.7805 70.7465 34.7805C70.3847 34.7805 70.2956 35.3921 70.2956 36.4053C70.2956 38.5053 71.2813 37.996 71.2813 38.4554C71.2813 38.6024 71.1843 38.6496 70.9772 38.6496C70.7701 38.6496 70.2274 38.5814 69.6664 38.5814C69.1054 38.5814 68.5915 38.6496 68.3556 38.6496C68.1196 38.6496 68.0541 38.6024 68.0541 38.4554Z" fill="#FAF4E5"/>
<path d="M75.1377 38.4554C75.1377 37.996 76.0946 38.5053 76.0946 36.6914C76.0946 35.1768 75.1429 35.6152 75.1429 35.1637C75.1429 34.8172 75.6437 35.0036 76.2125 34.7883C76.8575 34.5442 76.7369 34.1426 77.0462 34.1426C77.2612 34.1426 77.3084 34.3579 77.3084 35.1086C77.3084 35.6782 77.3084 35.9223 77.3084 36.4079C77.3084 38.5079 78.2653 37.9987 78.2653 38.458C78.2653 38.6733 78.0791 38.6811 77.6413 38.6313C77.3281 38.5953 77.0129 38.5786 76.6975 38.5814C76.3646 38.5814 76.0238 38.6024 75.7616 38.6313C75.3264 38.6785 75.1377 38.6706 75.1377 38.4554Z" fill="#FAF4E5"/>
<path d="M78.8997 37.7624C78.8923 37.6872 78.9009 37.6114 78.9247 37.5397C78.9486 37.468 78.9872 37.4022 79.0382 37.3465C79.0891 37.2908 79.1512 37.2464 79.2204 37.2163C79.2896 37.1862 79.3643 37.1711 79.4398 37.1718C79.6626 37.1718 79.7019 37.2348 79.6836 37.3582C79.5944 37.7887 80.0585 37.9908 80.6352 37.9908C81.4741 37.9908 81.815 37.5262 81.815 37.0327C81.815 36.9277 81.7651 36.8936 81.676 36.9356C81.4027 37.0578 81.1076 37.1239 80.8082 37.1298C79.5604 37.1298 78.7555 36.6704 78.7555 35.6703C78.7555 34.6204 79.7412 34.1216 80.879 34.1216C82.7142 34.1216 83.3224 34.9957 83.3224 36.4079C83.3224 37.8727 82.3104 38.6654 80.6719 38.6654C79.2798 38.6654 78.8997 38.2401 78.8997 37.7624ZM81.7573 35.6021C81.7573 35.0771 81.5135 34.7962 81.0573 34.7962C80.6011 34.7962 80.3416 35.0745 80.3416 35.6021C80.3416 36.1297 80.6038 36.4079 81.0573 36.4079C81.5108 36.4079 81.7573 36.1218 81.7573 35.6021Z" fill="#FAF4E5"/>
<path d="M85.7972 38.4554C85.7899 38.404 85.8005 38.3517 85.8273 38.3072C85.854 38.2628 85.8952 38.2289 85.944 38.2113C86.1092 38.143 86.3058 38.059 86.4683 37.9672C86.6309 37.8753 86.7462 37.7939 86.7462 37.6627C86.7462 37.4894 86.6073 37.3766 86.1354 37.3766H84.7616C84.2766 37.3766 84.1377 37.3083 84.1377 37.0432C84.1377 36.7781 84.1928 36.6127 84.5598 36.2557C85.116 35.7617 85.5934 35.1854 85.9755 34.5469C86.0263 34.4166 86.12 34.3077 86.2411 34.238C86.3622 34.1683 86.5034 34.1421 86.6414 34.1636C86.9035 34.1636 87.1132 34.2135 87.4278 34.2056C87.8237 34.2056 88.1986 34.1636 88.1986 34.5259C88.1986 34.8881 88.1226 35.3133 88.1226 35.7491C88.1226 36.3476 88.2274 36.6599 88.5735 36.6599C88.8356 36.6599 88.9772 36.6258 89.1345 36.6258C89.2918 36.6258 89.3705 36.7308 89.3705 36.9251V37.1272C89.3705 37.3214 89.2656 37.4133 89.1345 37.4133C89.0034 37.4133 88.8016 37.3503 88.4765 37.3503C88.4315 37.3432 88.3854 37.3465 88.3419 37.3601C88.2984 37.3737 88.2586 37.3971 88.2257 37.4286C88.1927 37.4601 88.1674 37.4988 88.1518 37.5417C88.1362 37.5845 88.1307 37.6304 88.1357 37.6758C88.1357 38.08 89.0165 38.0722 89.0165 38.4633C89.0165 38.6785 88.8356 38.6785 88.4136 38.6365C88.1514 38.6076 87.8237 38.5945 87.4986 38.5866C87.1735 38.5788 86.7357 38.6076 86.4028 38.6365C85.9335 38.6706 85.8103 38.6523 85.7972 38.4554ZM86.7541 36.324C86.8 36.0362 86.7711 35.7415 86.6702 35.4682C86.5942 35.2871 86.408 35.2818 86.2271 35.4682C85.9677 35.712 85.756 36.0022 85.6032 36.324C85.4852 36.6153 85.5822 36.7413 86.062 36.7413C86.5417 36.7413 86.6912 36.6442 86.7541 36.324Z" fill="#FAF4E5"/>
<path d="M91.7142 38.4554C91.7069 38.404 91.7175 38.3517 91.7442 38.3072C91.771 38.2627 91.8122 38.2289 91.861 38.2113C92.0261 38.143 92.2228 38.059 92.3853 37.9672C92.5478 37.8753 92.6632 37.7939 92.6632 37.6627C92.6632 37.4894 92.5243 37.3765 92.0524 37.3765H90.6786C90.1936 37.3765 90.0547 37.3083 90.0547 37.0432C90.0547 36.7781 90.1097 36.6127 90.4768 36.2557C91.0329 35.7617 91.5104 35.1854 91.8924 34.5469C91.9421 34.4171 92.0342 34.3081 92.1537 34.2375C92.2732 34.167 92.4131 34.1391 92.5505 34.1584C92.8126 34.1584 93.0224 34.2082 93.337 34.2004C93.7328 34.2004 94.1077 34.1584 94.1077 34.5206C94.1077 34.8829 94.0317 35.3081 94.0317 35.7438C94.0317 36.3423 94.1365 36.6547 94.4826 36.6547C94.7448 36.6547 94.8863 36.6206 95.0436 36.6206C95.2009 36.6206 95.2796 36.7256 95.2796 36.9198V37.1219C95.2796 37.3162 95.1747 37.408 95.0436 37.408C94.9125 37.408 94.7107 37.3451 94.3856 37.3451C94.3406 37.3379 94.2945 37.3413 94.251 37.3548C94.2075 37.3684 94.1678 37.3919 94.1348 37.4234C94.1018 37.4549 94.0765 37.4936 94.0609 37.5364C94.0453 37.5793 94.0398 37.6252 94.0448 37.6705C94.0448 38.0748 94.9257 38.0669 94.9257 38.458C94.9257 38.6733 94.7448 38.6733 94.3227 38.6313C94.0605 38.6024 93.7328 38.5893 93.4077 38.5814C93.0827 38.5735 92.6448 38.6024 92.3119 38.6313C91.8531 38.6706 91.7273 38.6523 91.7142 38.4554ZM92.6711 36.3239C92.717 36.0362 92.6881 35.7415 92.5872 35.4682C92.5111 35.2871 92.325 35.2818 92.1441 35.4682C91.8846 35.712 91.673 36.0022 91.5202 36.3239C91.4022 36.6153 91.4992 36.7413 91.9789 36.7413C92.4587 36.7413 92.6081 36.6442 92.6711 36.3239Z" fill="#FAF4E5"/>
</svg>
